<svg xmlns="http://www.w3.org/2000/svg" viewBox="0 0 100 100" width="100" height="100">
  <!-- Outer wax circle -->
  <circle cx="50" cy="50" r="46" fill="#8b1a2f" stroke="#d4a843" stroke-width="2"/>

  <!-- Inner decorative rings -->
  <circle cx="50" cy="50" r="40" fill="none" stroke="#d4a843" stroke-width="0.8" opacity="0.6"/>
  <circle cx="50" cy="50" r="36" fill="none" stroke="#d4a843" stroke-width="0.5" opacity="0.4"/>

  <!-- Burst tick marks -->
  <line x1="90" y1="50" x2="94" y2="50" stroke="#d4a843" stroke-width="1.2" opacity="0.7"/>
  <line x1="85.36" y1="25.36" x2="88.97" y2="22.93" stroke="#d4a843" stroke-width="1.2" opacity="0.7"/>
  <line x1="50" y1="10" x2="50" y2="6" stroke="#d4a843" stroke-width="1.2" opacity="0.7"/>
  <line x1="14.64" y1="25.36" x2="11.03" y2="22.93" stroke="#d4a843" stroke-width="1.2" opacity="0.7"/>
  <line x1="10" y1="50" x2="6" y2="50" stroke="#d4a843" stroke-width="1.2" opacity="0.7"/>
  <line x1="14.64" y1="74.64" x2="11.03" y2="77.07" stroke="#d4a843" stroke-width="1.2" opacity="0.7"/>
  <line x1="50" y1="90" x2="50" y2="94" stroke="#d4a843" stroke-width="1.2" opacity="0.7"/>
  <line x1="85.36" y1="74.64" x2="88.97" y2="77.07" stroke="#d4a843" stroke-width="1.2" opacity="0.7"/>
  <line x1="76.77" y1="15.22" x2="79.19" y2="11.61" stroke="#d4a843" stroke-width="1.2" opacity="0.7"/>
  <line x1="23.23" y1="15.22" x2="20.81" y2="11.61" stroke="#d4a843" stroke-width="1.2" opacity="0.7"/>
  <line x1="23.23" y1="84.78" x2="20.81" y2="88.39" stroke="#d4a843" stroke-width="1.2" opacity="0.7"/>
  <line x1="76.77" y1="84.78" x2="79.19" y2="88.39" stroke="#d4a843" stroke-width="1.2" opacity="0.7"/>
  <line x1="93.97" y1="30.09" x2="97.59" y2="28.68" stroke="#d4a843" stroke-width="1.2" opacity="0.7"/>
  <line x1="6.03" y1="30.09" x2="2.41" y2="28.68" stroke="#d4a843" stroke-width="1.2" opacity="0.7"/>
  <line x1="6.03" y1="69.91" x2="2.41" y2="71.32" stroke="#d4a843" stroke-width="1.2" opacity="0.7"/>
  <line x1="93.97" y1="69.91" x2="97.59" y2="71.32" stroke="#d4a843" stroke-width="1.2" opacity="0.7"/>

  <!-- Crescent moon -->
  <path d="M50 22 A18 18 0 1 1 32 50 A12 12 0 1 0 50 22 Z" fill="#d4a843" opacity="0.9"/>

  <!-- M & F monogram -->
  <text
    x="50" y="76"
    text-anchor="middle"
    font-family="Georgia, serif"
    font-size="13"
    font-weight="600"
    fill="#d4a843"
    letter-spacing="3"
  >M &amp; F</text>
</svg>
